<?xml version="1.0" encoding="UTF-8"?>
<svg id="Banana" xmlns="http://www.w3.org/2000/svg" viewBox="0 0 407.81 370.72">
  <path d="M175.77,358.69c86.38,43.03,225.31-34.68,231.7-148.07,6.39-113.4-79.41-208.64-94.19-163.64-14.79,45,43.02,118.7-13.67,202.39-56.69,83.69-135.15,64.35-132.16,94.73,1.22,12.44,8.32,14.59,8.32,14.59Z" style="fill: #eab343;"/>
  <path d="M91.97,316.07c54.87,38.73,213.92,41.16,249.43-88.68,29.71-108.61-34.23-223.64-57.89-183.71s17.38,126.67-55.02,193.33c-72.4,66.66-144.74,27.42-148.1,57.76-1.38,12.42,11.59,21.3,11.59,21.3Z" style="fill: #efd145;"/>
  <path d="M19.28,237.06c56.14,73.7,212.14,87.35,265.33-9.3,53.18-96.64,17.43-226.07-14.48-194.2-31.91,31.87-11.82,127.48-96.91,171.3-85.09,43.82-146.2-14.77-156.3,13.61-4.14,11.62,2.36,18.59,2.36,18.59Z" style="fill: #f7ee5a;"/>
  <path d="M2.95,141.4c26.1,55.02,143.38,132.89,218.96,53.38,63.22-66.51,59.28-182.56,26.57-164.21s-35.07,102.45-114.13,117.36C55.29,162.85,16.4,99.09,2.41,120.03c-5.73,8.57.54,21.37.54,21.37Z" style="fill: #fff791;"/>
  <rect x="217.85" y="0" width="142.98" height="52.6" rx="26.3" ry="26.3" style="fill: #5a4532;"/>
  <rect x="216.68" y="0" width="100.82" height="52.6" rx="26.3" ry="26.3" style="fill: #795e3b;"/>
</svg>