<?xml version="1.0" encoding="UTF-8"?>
<svg id="Bell" xmlns="http://www.w3.org/2000/svg" viewBox="0 0 151.99 199.67">
  <path d="M151.99,136.38c0,34.96-34.02,63.29-76,63.29S0,171.33,0,136.38,34.02,58.35,76,58.35s76,43.07,76,78.03Z" style="fill: #d1b574;"/>
  <path d="M82.44,108.42h0c-10.54-7.69-28.15-1.47-31.24,10.97l-10.12,44.42,32.62-12.68c19.83-7.71,24.63-31.14,8.75-42.71Z" style="fill: #7e6010;"/>
  <path d="M58.02,52.97S19.07,26.67,49.23,10.57c30.16-16.1,67.03-14.78,57.7,10.64s9.24-13.26,17.11,3.55-38.62,30.05-38.62,30.05" style="fill: #d1b574;"/>
  <path d="M30.14,100.14h0c12.05-2.09,24.41,10.69,21.7,22.42l-10.76,41.24-21.8-24.16c-13.25-14.69-7.3-36.36,10.85-39.5Z" style="fill: #7e6010;"/>
  <path d="M64.75,45.71c0,.66,7.49-25.02,7.49-25.02l-30.66-4.41s-12.98,10.94,9.69,31.33,13.48-2.54,13.48-1.91Z" style="fill: #e8d598;"/>
  <polygon points="68.16 50.48 78.35 20.61 89.86 23.93 70.96 50.48 68.16 50.48" style="fill: #e8d598;"/>
  <path d="M96.37,104.51l-3.05-9.84-3.84-12.36-3.27-10.53c-1.15-3.71,2.66-8.2,8.52-10.02l1.71-.53c5.86-1.82,11.54-.28,12.69,3.43l10.16,32.74c1.15,3.71-2.66,8.2-8.52,10.02l-1.71.53c-5.86,1.82-11.54.28-12.69-3.43Z" style="fill: #d22026;"/>
  <path d="M105.39,70.35h-54.08c-6.13,0-11.11-4.97-11.11-11.11v-1.79c0-6.13,4.97-11.11,11.11-11.11h54.08c6.13,0,11.11,4.97,11.11,11.11v1.79c0,6.13-4.97,11.11-11.11,11.11Z" style="fill: #d22026;"/>
  <polygon points="110.27 68.31 88.45 79 86.01 70.35 110.27 68.31" style="fill: #890a0d;"/>
  <polygon points="31.69 78.05 14.03 99.9 55.06 78.05 41.08 71.93 31.69 78.05" style="fill: #e8d598;"/>
  <polygon points="61.52 79 47.99 87.5 66.51 82.14 61.52 79" style="fill: #e8d598;"/>
</svg>