<?xml version="1.0" encoding="UTF-8"?>
<svg id="Egg" xmlns="http://www.w3.org/2000/svg" viewBox="0 0 370.66 350.42">
  <path d="M49.94,65.74c13-32,94-105,156-39s45,39,90,55c77.35,27.5,88,124,62,175s-70,85-110,93-68.72-58-123.36-36-175.86-49.3-100.64-117c50-45-4.67-55.49,26-131Z" style="fill: #ebf3f8;"/>
  <circle cx="200.95" cy="180.8" r="67.82" style="fill: #eab343;"/>
  <circle cx="197.28" cy="177.13" r="60.26" style="fill: #efd145;"/>
  <circle cx="189.26" cy="165.02" r="38.15" style="fill: #f7ee5a;"/>
  <circle cx="113.28" cy="54" r="11.3" style="fill: #fff;"/>
  <circle cx="134.09" cy="34.34" r="8.36" style="fill: #fff;"/>
  <circle cx="249.17" cy="317.55" r="8.36" style="fill: #cad3d8;"/>
  <circle cx="268.77" cy="299.87" r="10.72" style="fill: #cad3d8;"/>
  <circle cx="272.52" cy="321.46" r="6.97" style="fill: #cad3d8;"/>
  <circle cx="302.98" cy="119.94" r="6.97" style="fill: #cad3d8;"/>
  <circle cx="285.02" cy="107.09" r="10.99" style="fill: #fff;"/>
  <circle cx="33.48" cy="226.78" r="15.2" style="fill: #fff;"/>
  <circle cx="44.93" cy="262.22" r="6.97" style="fill: #fff;"/>
  <path d="M330.04,132.7s41.87,48.75,26.55,94.08-38.81,59.62-38.81,56.56,42.89-37.28,31.66-80.17-18.89-50.04-21.96-60.77-8.68-16.85,2.55-9.7Z" style="fill: #fff;"/>
</svg>