<?xml version="1.0" encoding="UTF-8"?>
<svg id="Kiwi" xmlns="http://www.w3.org/2000/svg" viewBox="0 0 430.31 285.26">
  <g>
    <path d="M260.09,219.77c3.46-4.54,3.62-9.63,6.46-14.42-47.21,10.55-102.82-1.42-149.16-36.73C70.07,132.55,43.65,80.7,42.29,31.45c-4.49,4.51-8.74,9.35-12.7,14.55C-18.57,109.21-6.69,199.27,56.13,247.14c62.82,47.88,155.79,35.84,203.96-27.37Z" style="fill: #5a4532;"/>
    <ellipse cx="149.23" cy="126.84" rx="86.27" ry="144.57" transform="translate(-42.11 168.65) rotate(-52.69)" style="fill: #add136;"/>
    <ellipse cx="153.28" cy="121.53" rx="34.44" ry="57.72" transform="translate(-36.29 169.78) rotate(-52.69)" style="fill: #665d34;"/>
    <ellipse cx="151.84" cy="117.35" rx="28.07" ry="47.05" transform="translate(-33.53 166.99) rotate(-52.69)" style="fill: #dfe99a;"/>
    <ellipse cx="200.08" cy="174.39" rx="2.6" ry="6.81" transform="translate(-59.89 227.82) rotate(-52.69)" style="fill: #231f20;"/>
    <ellipse cx="170.55" cy="178" rx="2.6" ry="6.81" transform="translate(-39.4 48.81) rotate(-14.62)" style="fill: #231f20;"/>
    <ellipse cx="143.27" cy="170.5" rx="6.81" ry="2.6" transform="translate(-59.12 263.42) rotate(-74.62)" style="fill: #231f20;"/>
    <ellipse cx="155.45" cy="74.01" rx="6.45" ry="2.69" transform="translate(34.81 196.85) rotate(-70.98)" style="fill: #231f20;"/>
    <ellipse cx="186.55" cy="91.64" rx="6.81" ry="2.6" transform="translate(-8.71 162.86) rotate(-46.2)" style="fill: #231f20;"/>
    <ellipse cx="204.11" cy="111.56" rx="6.81" ry="2.6" transform="translate(-26.91 84.41) rotate(-21.96)" style="fill: #231f20;"/>
    <ellipse cx="212.29" cy="152.08" rx="2.6" ry="6.81" transform="translate(2.09 307.03) rotate(-72.01)" style="fill: #231f20;"/>
    <ellipse cx="211.98" cy="132.66" rx="6.81" ry="2.6" transform="translate(-1.62 2.63) rotate(-.71)" style="fill: #231f20;"/>
    <ellipse cx="93.63" cy="114.14" rx="6.81" ry="2.6" transform="translate(-1.4 1.16) rotate(-.71)" style="fill: #231f20;"/>
    <ellipse cx="101.96" cy="135.36" rx="6.81" ry="2.6" transform="translate(-53.39 67.65) rotate(-29.46)" style="fill: #231f20;"/>
    <ellipse cx="119.89" cy="154.2" rx="6.81" ry="2.6" transform="translate(-66.29 213.26) rotate(-69.74)" style="fill: #231f20;"/>
    <ellipse cx="131.75" cy="67.5" rx="2.6" ry="6.81" transform="translate(-2.04 4.14) rotate(-1.79)" style="fill: #231f20;"/>
    <ellipse cx="110.56" cy="69.14" rx="2.6" ry="6.81" transform="translate(-19.04 54.73) rotate(-25.68)" style="fill: #231f20;"/>
    <ellipse cx="95.25" cy="86.78" rx="2.6" ry="6.81" transform="translate(-19.12 146.14) rotate(-69.76)" style="fill: #231f20;"/>
  </g>
  <g>
    <path d="M339.56,6.42c-5.3-2.13-10.24-.93-15.62-2.41,22.69,42.72,25.9,99.52,4.14,153.56-22.22,55.19-65.21,94.43-112.33,108.79,5.54,3.13,11.34,5.94,17.4,8.38,73.72,29.68,157.4-5.66,186.89-78.93,29.5-73.27-6.76-159.72-80.48-189.39Z" style="fill: #5a4532;"/>
    <ellipse cx="279.36" cy="137.96" rx="144.57" ry="86.27" transform="translate(47.05 345.58) rotate(-68.07)" style="fill: #add136;"/>
    <ellipse cx="273.16" cy="135.47" rx="57.72" ry="34.44" transform="translate(45.48 338.28) rotate(-68.07)" style="fill: #665d34;"/>
    <ellipse cx="269.51" cy="137.96" rx="47.05" ry="28.07" transform="translate(40.88 336.45) rotate(-68.07)" style="fill: #dfe99a;"/>
    <ellipse cx="311.71" cy="76.32" rx="6.81" ry="2.6" transform="translate(124.5 336.98) rotate(-68.07)" style="fill: #231f20;"/>
    <ellipse cx="323.03" cy="103.83" rx="6.81" ry="2.6" transform="translate(-8.64 175.43) rotate(-30)" style="fill: #231f20;"/>
    <path d="M323.03,134.73c-3.76,0-6.81-1.16-6.81-2.6,0-1.44,3.05-2.6,6.81-2.6s6.81,1.16,6.81,2.6-3.05,2.6-6.81,2.6Z" style="fill: #231f20;"/>
    <ellipse cx="226.77" cy="145.98" rx="2.69" ry="6.45" transform="translate(66.68 363.02) rotate(-86.36)" style="fill: #231f20;"/>
    <ellipse cx="235.51" cy="111.32" rx="2.6" ry="6.81" transform="translate(25.53 265.47) rotate(-61.58)" style="fill: #231f20;"/>
    <ellipse cx="250.07" cy="89.1" rx="2.6" ry="6.81" transform="translate(-2.8 169.92) rotate(-37.34)" style="fill: #231f20;"/>
    <ellipse cx="286.96" cy="70.47" rx="6.81" ry="2.6" transform="translate(203.52 353.93) rotate(-87.39)" style="fill: #231f20;"/>
    <ellipse cx="268.32" cy="75.91" rx="2.6" ry="6.81" transform="translate(-10.53 77.33) rotate(-16.09)" style="fill: #231f20;"/>
    <ellipse cx="281.86" cy="194.94" rx="2.6" ry="6.81" transform="translate(-42.98 85.74) rotate(-16.09)" style="fill: #231f20;"/>
    <ellipse cx="300.11" cy="181.28" rx="2.6" ry="6.81" transform="translate(-40.51 264.35) rotate(-44.84)" style="fill: #231f20;"/>
    <ellipse cx="313.51" cy="158.99" rx="2.6" ry="6.81" transform="translate(128.41 457.84) rotate(-85.12)" style="fill: #231f20;"/>
    <ellipse cx="226.77" cy="170.55" rx="6.81" ry="2.6" transform="translate(-40.24 74.54) rotate(-17.17)" style="fill: #231f20;"/>
    <ellipse cx="233.98" cy="190.55" rx="6.81" ry="2.6" transform="translate(-67.61 200.54) rotate(-41.06)" style="fill: #231f20;"/>
    <ellipse cx="255.05" cy="200.63" rx="6.81" ry="2.6" transform="translate(33.56 437.79) rotate(-85.15)" style="fill: #231f20;"/>
  </g>
</svg>