<?xml version="1.0" encoding="UTF-8"?>
<svg id="Leaf" xmlns="http://www.w3.org/2000/svg" viewBox="0 0 268.94 272.04">
  <path d="M129.7,58.31S111.86-9.09,154.02,1.04c43.18,10.37,18.32,35.62,1.89,59.32,0,0-24.91,38.45,20.09,37.45s67.74-23.83,67.74-23.83c0,0-40.03,39.57-22.81,68.43,16.22,27.17,42.58,40.03,48,36.43l-18.55,8.21,15,31-33-9-4.3,23.63s-19.17-27.26-31.66-31.71c-13.08-4.66-24.02-12.83-24.04,20.09-.02,31,1,39,1,39l-25-19-30,31-22-40.06h-30s9.34-20.12,16.34-35.12-27.72-6.15-45.72-7.15-21-2-21-2l18-15L0,152.72l32-11-16-19s15.7,3.09,33.7,7.09,27.91-37.11,16.68-49.36-15.32-15.66-15.32-15.66c0,0,32.34,30.98,55.83,29.62s22.81-36.09,22.81-36.09Z" style="fill: #b35f5e;"/>
  <path d="M127.33,201.29c3.57-6.89,5.4-14.53,7.15-22.09,5.61-24.27,10.66-49.58,5.23-73.89,0,0-2.91-9.56-1.16-21.12" style="fill: none; stroke: #69160e; stroke-linecap: round; stroke-linejoin: round; stroke-width: 10px;"/>
  <polyline points="114.72 159.08 138.75 159.08 105.87 182.57" style="fill: none; stroke: #69160e; stroke-linecap: round; stroke-linejoin: round; stroke-width: 10px;"/>
  <path d="M180.09,172.7c0-1.02-36.09-13.62-36.09-13.62" style="fill: none; stroke: #69160e; stroke-linecap: round; stroke-linejoin: round; stroke-width: 10px;"/>
  <path d="M146.38,122.31l38.13-11.91-38.13,11.91Z" style="fill: none; stroke: #69160e; stroke-linecap: round; stroke-linejoin: round; stroke-width: 10px;"/>
  <path d="M184.51,140.02l-40.51-10.21,40.51,10.21Z" style="fill: none; stroke: #69160e; stroke-linecap: round; stroke-linejoin: round; stroke-width: 10px;"/>
  <path d="M99.4,122.31l39.35-8.85-39.35,8.85Z" style="fill: none; stroke: #69160e; stroke-linecap: round; stroke-linejoin: round; stroke-width: 10px;"/>
</svg>